<svg xmlns="http://www.w3.org/2000/svg" xmlns:xlink="http://www.w3.org/1999/xlink" contentStyleType="text/css" data-diagram-type="ACTIVITY" height="956px" preserveAspectRatio="none" style="width:772px;height:956px;background:#FFFFFF;" version="1.1" viewBox="0 0 772 956" width="772px" zoomAndPan="magnify"><title>&#1040;&#1083;&#1075;&#1086;&#1088;&#1080;&#1090;&#1084; &#1086;&#1073;&#1093;&#1086;&#1076;&#1072; &#1082;&#1086;&#1085;&#1103; - &#1057;&#1090;&#1088;&#1072;&#1085;&#1080;&#1094;&#1072; 2: &#1060;&#1091;&#1085;&#1082;&#1094;&#1080;&#1103; isValidMove</title><defs/><g><g class="title" data-source-line="95"><text fill="#000000" font-family="Verdana" font-size="22" font-weight="bold" lengthAdjust="spacing" textLength="739.5566" x="15" y="37.1182">&#1040;&#1083;&#1075;&#1086;&#1088;&#1080;&#1090;&#1084; &#1086;&#1073;&#1093;&#1086;&#1076;&#1072; &#1082;&#1086;&#1085;&#1103; - &#1057;&#1090;&#1088;&#1072;&#1085;&#1080;&#1094;&#1072; 2: &#1060;&#1091;&#1085;&#1082;&#1094;&#1080;&#1103; isValidMove</text></g><ellipse cx="385.5435" cy="62.7373" fill="#FFFFFF" rx="10" ry="10" style="stroke:#000000;stroke-width:1;"/><rect fill="#E6F3FF" height="32.1533" rx="12.5" ry="12.5" style="stroke:#4A90E2;stroke-width:1;" width="157.041" x="307.0229" y="92.7373"/><text fill="#000000" font-family="Verdana" font-size="10" lengthAdjust="spacing" textLength="137.041" x="317.0229" y="112.791">&#1055;&#1086;&#1083;&#1091;&#1095;&#1080;&#1090;&#1100; &#1082;&#1086;&#1086;&#1088;&#1076;&#1080;&#1085;&#1072;&#1090;&#1099; x, y</text><rect fill="#E6F3FF" height="32.1533" rx="12.5" ry="12.5" style="stroke:#4A90E2;stroke-width:1;" width="78.0371" x="346.5249" y="193.575"/><text fill="#000000" font-family="Verdana" font-size="10" lengthAdjust="spacing" textLength="58.0371" x="356.5249" y="213.6287">return false</text><ellipse cx="385.5435" cy="266.1516" fill="none" rx="11" ry="11" style="stroke:#000000;stroke-width:1;"/><ellipse cx="385.5435" cy="266.1516" fill="#FFFFFF" rx="6" ry="6" style="stroke:#000000;stroke-width:1;"/><polygon fill="#E6F3FF" points="364.9795,144.8906,406.1074,144.8906,418.1074,156.8906,406.1074,168.8906,364.9795,168.8906,352.9795,156.8906,364.9795,144.8906" style="stroke:#4A90E2;stroke-width:1;"/><text fill="#000000" font-family="Verdana" font-size="11" lengthAdjust="spacing" textLength="19.019" x="389.5435" y="179.9497">&#1085;&#1077;&#1090;</text><text fill="#000000" font-family="Verdana" font-size="10" lengthAdjust="spacing" textLength="41.1279" x="364.9795" y="160.8677">x &gt;= 0?</text><rect fill="#E6F3FF" height="32.1533" rx="12.5" ry="12.5" style="stroke:#4A90E2;stroke-width:1;" width="78.0371" x="346.5249" y="367.8359"/><text fill="#000000" font-family="Verdana" font-size="10" lengthAdjust="spacing" textLength="58.0371" x="356.5249" y="387.8896">return false</text><ellipse cx="385.5435" cy="440.4126" fill="none" rx="11" ry="11" style="stroke:#000000;stroke-width:1;"/><ellipse cx="385.5435" cy="440.4126" fill="#FFFFFF" rx="6" ry="6" style="stroke:#000000;stroke-width:1;"/><polygon fill="#E6F3FF" points="369.0713,319.1516,402.0156,319.1516,414.0156,331.1516,402.0156,343.1516,369.0713,343.1516,357.0713,331.1516,369.0713,319.1516" style="stroke:#4A90E2;stroke-width:1;"/><text fill="#000000" font-family="Verdana" font-size="11" lengthAdjust="spacing" textLength="19.019" x="389.5435" y="354.2107">&#1085;&#1077;&#1090;</text><text fill="#000000" font-family="Verdana" font-size="10" lengthAdjust="spacing" textLength="32.9443" x="369.0713" y="335.1287">x &lt; 8?</text><rect fill="#E6F3FF" height="32.1533" rx="12.5" ry="12.5" style="stroke:#4A90E2;stroke-width:1;" width="78.0371" x="346.5249" y="542.0969"/><text fill="#000000" font-family="Verdana" font-size="10" lengthAdjust="spacing" textLength="58.0371" x="356.5249" y="562.1506">return false</text><ellipse cx="385.5435" cy="614.6736" fill="none" rx="11" ry="11" style="stroke:#000000;stroke-width:1;"/><ellipse cx="385.5435" cy="614.6736" fill="#FFFFFF" rx="6" ry="6" style="stroke:#000000;stroke-width:1;"/><polygon fill="#E6F3FF" points="364.9795,493.4126,406.1074,493.4126,418.1074,505.4126,406.1074,517.4126,364.9795,517.4126,352.9795,505.4126,364.9795,493.4126" style="stroke:#4A90E2;stroke-width:1;"/><text fill="#000000" font-family="Verdana" font-size="11" lengthAdjust="spacing" textLength="19.019" x="389.5435" y="528.4717">&#1085;&#1077;&#1090;</text><text fill="#000000" font-family="Verdana" font-size="10" lengthAdjust="spacing" textLength="41.1279" x="364.9795" y="509.3896">y &gt;= 0?</text><rect fill="#E6F3FF" height="32.1533" rx="12.5" ry="12.5" style="stroke:#4A90E2;stroke-width:1;" width="78.0371" x="346.5249" y="716.3579"/><text fill="#000000" font-family="Verdana" font-size="10" lengthAdjust="spacing" textLength="58.0371" x="356.5249" y="736.4116">return false</text><ellipse cx="385.5435" cy="788.9346" fill="none" rx="11" ry="11" style="stroke:#000000;stroke-width:1;"/><ellipse cx="385.5435" cy="788.9346" fill="#FFFFFF" rx="6" ry="6" style="stroke:#000000;stroke-width:1;"/><polygon fill="#E6F3FF" points="369.0713,667.6736,402.0156,667.6736,414.0156,679.6736,402.0156,691.6736,369.0713,691.6736,357.0713,679.6736,369.0713,667.6736" style="stroke:#4A90E2;stroke-width:1;"/><text fill="#000000" font-family="Verdana" font-size="11" lengthAdjust="spacing" textLength="19.019" x="389.5435" y="702.7327">&#1085;&#1077;&#1090;</text><text fill="#000000" font-family="Verdana" font-size="10" lengthAdjust="spacing" textLength="32.9443" x="369.0713" y="683.6506">y &lt; 8?</text><polygon fill="#E6F3FF" points="335.9536,841.9346,435.1333,841.9346,447.1333,853.9346,435.1333,865.9346,335.9536,865.9346,323.9536,853.9346,335.9536,841.9346" style="stroke:#4A90E2;stroke-width:1;"/><text fill="#000000" font-family="Verdana" font-size="10" lengthAdjust="spacing" textLength="99.1797" x="335.9536" y="857.9116">Board[x][y] == -1?</text><text fill="#000000" font-family="Verdana" font-size="11" lengthAdjust="spacing" textLength="13.4438" x="310.5098" y="851.625">&#1076;&#1072;</text><text fill="#000000" font-family="Verdana" font-size="11" lengthAdjust="spacing" textLength="19.019" x="447.1333" y="851.625">&#1085;&#1077;&#1090;</text><rect fill="#E6F3FF" height="32.1533" rx="12.5" ry="12.5" style="stroke:#4A90E2;stroke-width:1;" width="75.0977" x="276.4048" y="875.9346"/><text fill="#000000" font-family="Verdana" font-size="10" lengthAdjust="spacing" textLength="55.0977" x="286.4048" y="895.9883">return true</text><ellipse cx="313.9536" cy="939.0879" fill="none" rx="11" ry="11" style="stroke:#000000;stroke-width:1;"/><ellipse cx="313.9536" cy="939.0879" fill="#FFFFFF" rx="6" ry="6" style="stroke:#000000;stroke-width:1;"/><rect fill="#E6F3FF" height="32.1533" rx="12.5" ry="12.5" style="stroke:#4A90E2;stroke-width:1;" width="78.0371" x="418.1147" y="875.9346"/><text fill="#000000" font-family="Verdana" font-size="10" lengthAdjust="spacing" textLength="58.0371" x="428.1147" y="895.9883">return false</text><ellipse cx="457.1333" cy="939.0879" fill="none" rx="11" ry="11" style="stroke:#000000;stroke-width:1;"/><ellipse cx="457.1333" cy="939.0879" fill="#FFFFFF" rx="6" ry="6" style="stroke:#000000;stroke-width:1;"/><line style="stroke:#000000;stroke-width:1;" x1="385.5435" x2="385.5435" y1="72.7373" y2="92.7373"/><polygon fill="#000000" points="381.5435,82.7373,385.5435,92.7373,389.5435,82.7373,385.5435,86.7373" style="stroke:#000000;stroke-width:1;"/><line style="stroke:#000000;stroke-width:1;" x1="385.5435" x2="385.5435" y1="225.7283" y2="255.1516"/><polygon fill="#000000" points="381.5435,245.1516,385.5435,255.1516,389.5435,245.1516,385.5435,249.1516" style="stroke:#000000;stroke-width:1;"/><line style="stroke:#000000;stroke-width:1;" x1="385.5435" x2="385.5435" y1="168.8906" y2="193.575"/><polygon fill="#000000" points="381.5435,183.575,385.5435,193.575,389.5435,183.575,385.5435,187.575" style="stroke:#000000;stroke-width:1;"/><line style="stroke:#000000;stroke-width:1;" x1="418.1074" x2="434.562" y1="156.8906" y2="156.8906"/><polygon fill="#000000" points="430.562,225.1516,434.562,235.1516,438.562,225.1516,434.562,229.1516" style="stroke:#000000;stroke-width:1;"/><line style="stroke:#000000;stroke-width:1;" x1="434.562" x2="434.562" y1="156.8906" y2="299.1516"/><line style="stroke:#000000;stroke-width:1;" x1="434.562" x2="385.5435" y1="299.1516" y2="299.1516"/><line style="stroke:#000000;stroke-width:1;" x1="385.5435" x2="385.5435" y1="299.1516" y2="319.1516"/><polygon fill="#000000" points="381.5435,309.1516,385.5435,319.1516,389.5435,309.1516,385.5435,313.1516" style="stroke:#000000;stroke-width:1;"/><line style="stroke:#000000;stroke-width:1;" x1="385.5435" x2="385.5435" y1="124.8906" y2="144.8906"/><polygon fill="#000000" points="381.5435,134.8906,385.5435,144.8906,389.5435,134.8906,385.5435,138.8906" style="stroke:#000000;stroke-width:1;"/><line style="stroke:#000000;stroke-width:1;" x1="385.5435" x2="385.5435" y1="399.9893" y2="429.4126"/><polygon fill="#000000" points="381.5435,419.4126,385.5435,429.4126,389.5435,419.4126,385.5435,423.4126" style="stroke:#000000;stroke-width:1;"/><line style="stroke:#000000;stroke-width:1;" x1="385.5435" x2="385.5435" y1="343.1516" y2="367.8359"/><polygon fill="#000000" points="381.5435,357.8359,385.5435,367.8359,389.5435,357.8359,385.5435,361.8359" style="stroke:#000000;stroke-width:1;"/><line style="stroke:#000000;stroke-width:1;" x1="414.0156" x2="434.562" y1="331.1516" y2="331.1516"/><polygon fill="#000000" points="430.562,399.4126,434.562,409.4126,438.562,399.4126,434.562,403.4126" style="stroke:#000000;stroke-width:1;"/><line style="stroke:#000000;stroke-width:1;" x1="434.562" x2="434.562" y1="331.1516" y2="473.4126"/><line style="stroke:#000000;stroke-width:1;" x1="434.562" x2="385.5435" y1="473.4126" y2="473.4126"/><line style="stroke:#000000;stroke-width:1;" x1="385.5435" x2="385.5435" y1="473.4126" y2="493.4126"/><polygon fill="#000000" points="381.5435,483.4126,385.5435,493.4126,389.5435,483.4126,385.5435,487.4126" style="stroke:#000000;stroke-width:1;"/><line style="stroke:#000000;stroke-width:1;" x1="385.5435" x2="385.5435" y1="574.2502" y2="603.6736"/><polygon fill="#000000" points="381.5435,593.6736,385.5435,603.6736,389.5435,593.6736,385.5435,597.6736" style="stroke:#000000;stroke-width:1;"/><line style="stroke:#000000;stroke-width:1;" x1="385.5435" x2="385.5435" y1="517.4126" y2="542.0969"/><polygon fill="#000000" points="381.5435,532.0969,385.5435,542.0969,389.5435,532.0969,385.5435,536.0969" style="stroke:#000000;stroke-width:1;"/><line style="stroke:#000000;stroke-width:1;" x1="418.1074" x2="434.562" y1="505.4126" y2="505.4126"/><polygon fill="#000000" points="430.562,573.6736,434.562,583.6736,438.562,573.6736,434.562,577.6736" style="stroke:#000000;stroke-width:1;"/><line style="stroke:#000000;stroke-width:1;" x1="434.562" x2="434.562" y1="505.4126" y2="647.6736"/><line style="stroke:#000000;stroke-width:1;" x1="434.562" x2="385.5435" y1="647.6736" y2="647.6736"/><line style="stroke:#000000;stroke-width:1;" x1="385.5435" x2="385.5435" y1="647.6736" y2="667.6736"/><polygon fill="#000000" points="381.5435,657.6736,385.5435,667.6736,389.5435,657.6736,385.5435,661.6736" style="stroke:#000000;stroke-width:1;"/><line style="stroke:#000000;stroke-width:1;" x1="385.5435" x2="385.5435" y1="748.5112" y2="777.9346"/><polygon fill="#000000" points="381.5435,767.9346,385.5435,777.9346,389.5435,767.9346,385.5435,771.9346" style="stroke:#000000;stroke-width:1;"/><line style="stroke:#000000;stroke-width:1;" x1="385.5435" x2="385.5435" y1="691.6736" y2="716.3579"/><polygon fill="#000000" points="381.5435,706.3579,385.5435,716.3579,389.5435,706.3579,385.5435,710.3579" style="stroke:#000000;stroke-width:1;"/><line style="stroke:#000000;stroke-width:1;" x1="414.0156" x2="434.562" y1="679.6736" y2="679.6736"/><polygon fill="#000000" points="430.562,747.9346,434.562,757.9346,438.562,747.9346,434.562,751.9346" style="stroke:#000000;stroke-width:1;"/><line style="stroke:#000000;stroke-width:1;" x1="434.562" x2="434.562" y1="679.6736" y2="821.9346"/><line style="stroke:#000000;stroke-width:1;" x1="434.562" x2="385.5435" y1="821.9346" y2="821.9346"/><line style="stroke:#000000;stroke-width:1;" x1="385.5435" x2="385.5435" y1="821.9346" y2="841.9346"/><polygon fill="#000000" points="381.5435,831.9346,385.5435,841.9346,389.5435,831.9346,385.5435,835.9346" style="stroke:#000000;stroke-width:1;"/><line style="stroke:#000000;stroke-width:1;" x1="313.9536" x2="313.9536" y1="908.0879" y2="928.0879"/><polygon fill="#000000" points="309.9536,918.0879,313.9536,928.0879,317.9536,918.0879,313.9536,922.0879" style="stroke:#000000;stroke-width:1;"/><line style="stroke:#000000;stroke-width:1;" x1="457.1333" x2="457.1333" y1="908.0879" y2="928.0879"/><polygon fill="#000000" points="453.1333,918.0879,457.1333,928.0879,461.1333,918.0879,457.1333,922.0879" style="stroke:#000000;stroke-width:1;"/><line style="stroke:#000000;stroke-width:1;" x1="323.9536" x2="313.9536" y1="853.9346" y2="853.9346"/><line style="stroke:#000000;stroke-width:1;" x1="313.9536" x2="313.9536" y1="853.9346" y2="875.9346"/><polygon fill="#000000" points="309.9536,865.9346,313.9536,875.9346,317.9536,865.9346,313.9536,869.9346" style="stroke:#000000;stroke-width:1;"/><line style="stroke:#000000;stroke-width:1;" x1="447.1333" x2="457.1333" y1="853.9346" y2="853.9346"/><line style="stroke:#000000;stroke-width:1;" x1="457.1333" x2="457.1333" y1="853.9346" y2="875.9346"/><polygon fill="#000000" points="453.1333,865.9346,457.1333,875.9346,461.1333,865.9346,457.1333,869.9346" style="stroke:#000000;stroke-width:1;"/><!--SRC=[dP31Ia9158RtynGdsYWag8cKPg5nxwvLq4PS3Dwn1gypCdSKRn64KYqAwWqYw06C34JJPpZpHXsfIAf5k1dc_ES_ttyuQ_P4j0IqGouLYvfIjRdXBU1rAxlInd3602gytZmskgE2VHrg0-jUtj_q_KL7cq2OJpLNtavxML9zhUoXF1MGIRFp9MWWwZAIMlqDzNqlx-L_Ghrihfmh_u8oAsqe0EznYYyuTnSuTdry0vpZixkaTuH3m0bzPkuEKe2Fha-c8Sx8U4MzR07moGsedb0z9fECZdWeWmFT5On5bXlBM04V235r0tUz272t7yn5tWZ7D3mayGPw6n0N6PCDIFHWjmJflIJGNHKaoFBg-adQls24xHW53Hv6eaX2P7MR2HN8njVa3cojCXYl71cl6bdHt0JLNgqQrw1KWbJc6qA7NqPOqraY4Ew_EUy0]--></g></svg>