<svg xmlns="http://www.w3.org/2000/svg" xmlns:xlink="http://www.w3.org/1999/xlink" contentStyleType="text/css" data-diagram-type="ACTIVITY" height="583px" preserveAspectRatio="none" style="width:772px;height:583px;background:#FFFFFF;" version="1.1" viewBox="0 0 772 583" width="772px" zoomAndPan="magnify"><title>&#1040;&#1083;&#1075;&#1086;&#1088;&#1080;&#1090;&#1084; &#1086;&#1073;&#1093;&#1086;&#1076;&#1072; &#1082;&#1086;&#1085;&#1103; - &#1057;&#1090;&#1088;&#1072;&#1085;&#1080;&#1094;&#1072; 3: &#1060;&#1091;&#1085;&#1082;&#1094;&#1080;&#1103; countMoves</title><defs/><g><g class="title" data-source-line="144"><text fill="#000000" font-family="Verdana" font-size="22" font-weight="bold" lengthAdjust="spacing" textLength="739.5352" x="15" y="37.1182">&#1040;&#1083;&#1075;&#1086;&#1088;&#1080;&#1090;&#1084; &#1086;&#1073;&#1093;&#1086;&#1076;&#1072; &#1082;&#1086;&#1085;&#1103; - &#1057;&#1090;&#1088;&#1072;&#1085;&#1080;&#1094;&#1072; 3: &#1060;&#1091;&#1085;&#1082;&#1094;&#1080;&#1103; countMoves</text></g><ellipse cx="317.2412" cy="62.7373" fill="#FFFFFF" rx="10" ry="10" style="stroke:#000000;stroke-width:1;"/><rect fill="#E6F3FF" height="32.1533" rx="12.5" ry="12.5" style="stroke:#4A90E2;stroke-width:1;" width="157.041" x="238.7207" y="92.7373"/><text fill="#000000" font-family="Verdana" font-size="10" lengthAdjust="spacing" textLength="137.041" x="248.7207" y="112.791">&#1055;&#1086;&#1083;&#1091;&#1095;&#1080;&#1090;&#1100; &#1082;&#1086;&#1086;&#1088;&#1076;&#1080;&#1085;&#1072;&#1090;&#1099; x, y</text><rect fill="#E6F3FF" height="32.1533" rx="12.5" ry="12.5" style="stroke:#4A90E2;stroke-width:1;" width="69.4482" x="282.5171" y="144.8906"/><text fill="#000000" font-family="Verdana" font-size="10" lengthAdjust="spacing" textLength="49.4482" x="292.5171" y="164.9443">count = 0</text><rect fill="#E6F3FF" height="32.1533" rx="12.5" ry="12.5" style="stroke:#4A90E2;stroke-width:1;" width="210.835" x="211.8237" y="197.0439"/><text fill="#000000" font-family="Verdana" font-size="10" lengthAdjust="spacing" textLength="190.835" x="221.8237" y="217.0977">&#1044;&#1083;&#1103; &#1082;&#1072;&#1078;&#1076;&#1086;&#1075;&#1086; &#1080;&#1079; 8 &#1085;&#1072;&#1087;&#1088;&#1072;&#1074;&#1083;&#1077;&#1085;&#1080;&#1081; &#1082;&#1086;&#1085;&#1103;</text><path d="M425.9326,244.4746 L425.9326,261.2739 L405.9326,265.2739 L425.9326,269.2739 L425.9326,286.0732 A0,0 0 0 0 425.9326,286.0732 L559.7114,286.0732 A0,0 0 0 0 559.7114,286.0732 L559.7114,254.4746 L549.7114,244.4746 L425.9326,244.4746 A0,0 0 0 0 425.9326,244.4746" fill="#FFFFFF" style="stroke:#000000;stroke-width:1;"/><path d="M549.7114,244.4746 L549.7114,254.4746 L559.7114,254.4746 L549.7114,244.4746" fill="#FFFFFF" style="stroke:#000000;stroke-width:1;"/><text fill="#000000" font-family="Verdana" font-size="13" lengthAdjust="spacing" textLength="112.7788" x="431.9326" y="262.5444">nx = x + move.X</text><text fill="#000000" font-family="Verdana" font-size="13" lengthAdjust="spacing" textLength="111.8711" x="431.9326" y="278.3438">ny = y + move.Y</text><rect fill="#E6F3FF" height="32.1533" rx="12.5" ry="12.5" style="stroke:#4A90E2;stroke-width:1;" width="177.3828" x="228.5498" y="249.1973"/><text fill="#000000" font-family="Verdana" font-size="10" lengthAdjust="spacing" textLength="157.3828" x="238.5498" y="269.251">&#1042;&#1099;&#1095;&#1080;&#1089;&#1083;&#1080;&#1090;&#1100; &#1085;&#1086;&#1074;&#1099;&#1077; &#1082;&#1086;&#1086;&#1088;&#1076;&#1080;&#1085;&#1072;&#1090;&#1099;</text><rect fill="#E6F3FF" height="32.1533" rx="12.5" ry="12.5" style="stroke:#4A90E2;stroke-width:1;" width="64.2432" x="285.1196" y="354.7576"/><text fill="#000000" font-family="Verdana" font-size="10" lengthAdjust="spacing" textLength="44.2432" x="295.1196" y="374.8113">count++</text><polygon fill="#E6F3FF" points="264.707,306.0732,369.7754,306.0732,381.7754,318.0732,369.7754,330.0732,264.707,330.0732,252.707,318.0732,264.707,306.0732" style="stroke:#4A90E2;stroke-width:1;"/><text fill="#000000" font-family="Verdana" font-size="11" lengthAdjust="spacing" textLength="13.4438" x="321.2412" y="341.1323">&#1076;&#1072;</text><text fill="#000000" font-family="Verdana" font-size="10" lengthAdjust="spacing" textLength="105.0684" x="264.707" y="322.0503">isValidMove(nx, ny)?</text><polygon fill="#E6F3FF" points="317.2412,406.9109,329.2412,418.9109,317.2412,430.9109,305.2412,418.9109,317.2412,406.9109" style="stroke:#4A90E2;stroke-width:1;"/><rect fill="#E6F3FF" height="32.1533" rx="12.5" ry="12.5" style="stroke:#4A90E2;stroke-width:1;" width="186.0986" x="224.1919" y="450.9109"/><text fill="#000000" font-family="Verdana" font-size="10" lengthAdjust="spacing" textLength="166.0986" x="234.1919" y="470.9646">&#1055;&#1088;&#1086;&#1074;&#1077;&#1088;&#1077;&#1085;&#1099; &#1074;&#1089;&#1077; 8 &#1085;&#1072;&#1087;&#1088;&#1072;&#1074;&#1083;&#1077;&#1085;&#1080;&#1081;?</text><rect fill="#E6F3FF" height="32.1533" rx="12.5" ry="12.5" style="stroke:#4A90E2;stroke-width:1;" width="82.4805" x="276.001" y="503.0642"/><text fill="#000000" font-family="Verdana" font-size="10" lengthAdjust="spacing" textLength="62.4805" x="286.001" y="523.1179">return count</text><ellipse cx="317.2412" cy="566.2175" fill="none" rx="11" ry="11" style="stroke:#000000;stroke-width:1;"/><ellipse cx="317.2412" cy="566.2175" fill="#FFFFFF" rx="6" ry="6" style="stroke:#000000;stroke-width:1;"/><line style="stroke:#000000;stroke-width:1;" x1="317.2412" x2="317.2412" y1="72.7373" y2="92.7373"/><polygon fill="#000000" points="313.2412,82.7373,317.2412,92.7373,321.2412,82.7373,317.2412,86.7373" style="stroke:#000000;stroke-width:1;"/><line style="stroke:#000000;stroke-width:1;" x1="317.2412" x2="317.2412" y1="124.8906" y2="144.8906"/><polygon fill="#000000" points="313.2412,134.8906,317.2412,144.8906,321.2412,134.8906,317.2412,138.8906" style="stroke:#000000;stroke-width:1;"/><line style="stroke:#000000;stroke-width:1;" x1="317.2412" x2="317.2412" y1="177.0439" y2="197.0439"/><polygon fill="#000000" points="313.2412,187.0439,317.2412,197.0439,321.2412,187.0439,317.2412,191.0439" style="stroke:#000000;stroke-width:1;"/><line style="stroke:#000000;stroke-width:1;" x1="317.2412" x2="317.2412" y1="229.1973" y2="249.1973"/><polygon fill="#000000" points="313.2412,239.1973,317.2412,249.1973,321.2412,239.1973,317.2412,243.1973" style="stroke:#000000;stroke-width:1;"/><line style="stroke:#000000;stroke-width:1;" x1="317.2412" x2="317.2412" y1="330.0732" y2="354.7576"/><polygon fill="#000000" points="313.2412,344.7576,317.2412,354.7576,321.2412,344.7576,317.2412,348.7576" style="stroke:#000000;stroke-width:1;"/><line style="stroke:#000000;stroke-width:1;" x1="381.7754" x2="393.7754" y1="318.0732" y2="318.0732"/><polygon fill="#000000" points="389.7754,360.8342,393.7754,370.8342,397.7754,360.8342,393.7754,364.8342" style="stroke:#000000;stroke-width:1;"/><line style="stroke:#000000;stroke-width:1;" x1="393.7754" x2="393.7754" y1="318.0732" y2="418.9109"/><line style="stroke:#000000;stroke-width:1;" x1="393.7754" x2="329.2412" y1="418.9109" y2="418.9109"/><polygon fill="#000000" points="339.2412,414.9109,329.2412,418.9109,339.2412,422.9109,335.2412,418.9109" style="stroke:#000000;stroke-width:1;"/><line style="stroke:#000000;stroke-width:1;" x1="317.2412" x2="317.2412" y1="386.9109" y2="406.9109"/><polygon fill="#000000" points="313.2412,396.9109,317.2412,406.9109,321.2412,396.9109,317.2412,400.9109" style="stroke:#000000;stroke-width:1;"/><line style="stroke:#000000;stroke-width:1;" x1="317.2412" x2="317.2412" y1="281.3506" y2="306.0732"/><polygon fill="#000000" points="313.2412,296.0732,317.2412,306.0732,321.2412,296.0732,317.2412,300.0732" style="stroke:#000000;stroke-width:1;"/><line style="stroke:#000000;stroke-width:1;" x1="317.2412" x2="317.2412" y1="430.9109" y2="450.9109"/><polygon fill="#000000" points="313.2412,440.9109,317.2412,450.9109,321.2412,440.9109,317.2412,444.9109" style="stroke:#000000;stroke-width:1;"/><line style="stroke:#000000;stroke-width:1;" x1="317.2412" x2="317.2412" y1="483.0642" y2="503.0642"/><polygon fill="#000000" points="313.2412,493.0642,317.2412,503.0642,321.2412,493.0642,317.2412,497.0642" style="stroke:#000000;stroke-width:1;"/><line style="stroke:#000000;stroke-width:1;" x1="317.2412" x2="317.2412" y1="535.2175" y2="555.2175"/><polygon fill="#000000" points="313.2412,545.2175,317.2412,555.2175,321.2412,545.2175,317.2412,549.2175" style="stroke:#000000;stroke-width:1;"/><!--SRC=[TLBTIXj16BsVf_YADmcf9TKGhA58MdRll1AaNYxPKGUJcJ0xIhQbu0_gHGHByLw4Fa2gHgCswIjyyqOzix6bM7kpkz_FETyvXttXDcL7KhUTA2soBQMxYKqwbBISsb4kfq-2w5tIsjgmPbkdxqtRM9g9wl5y78U9iQcqZzrQyqqrcaCtDjgjg8-INbV5vxz8KzbIcJBwUT8uZkfH_IbfD5Thrfh_a0gdN5iIV-47lkA9t-MHt-SVn1F-xW_nlEO1yJq-nlwKPeal_3wM1Zp6uX5cyul4t_m1wdlK8ooreCKjcnsP2P6vn3eX5laS30_-m1y7VdyofGpdhda4x03DFlLUKjx0Ti50RwaQ2Zu3y3G01do3zKdGIK3TqW85AFyi15t2mJ38uhi_WWlyLzylpkvXuV7u6EDBt-VXipeQGXidoQgDJOV0T0zIUbIX3Zoz-X0wEJhvxywQa3gb0152hLD9PQj9MwKXWPA69PsNbyg4tqDJASHP1iFKOgNI25YrNYG44L35GxpX0t50uXua_i_bKd1dfTksUffv8-Hjkk8N]--></g></svg>