<svg xmlns="http://www.w3.org/2000/svg" xmlns:xlink="http://www.w3.org/1999/xlink" contentStyleType="text/css" data-diagram-type="ACTIVITY" height="1348px" preserveAspectRatio="none" style="width:967px;height:1348px;background:#FFFFFF;" version="1.1" viewBox="0 0 967 1348" width="967px" zoomAndPan="magnify"><title>&#1040;&#1083;&#1075;&#1086;&#1088;&#1080;&#1090;&#1084; &#1086;&#1073;&#1093;&#1086;&#1076;&#1072; &#1082;&#1086;&#1085;&#1103; - &#1057;&#1090;&#1088;&#1072;&#1085;&#1080;&#1094;&#1072; 1: &#1054;&#1089;&#1085;&#1086;&#1074;&#1085;&#1086;&#1081; &#1072;&#1083;&#1075;&#1086;&#1088;&#1080;&#1090;&#1084; SolveKnightTour</title><defs/><g><g class="title" data-source-line="13"><text fill="#000000" font-family="Verdana" font-size="22" font-weight="bold" lengthAdjust="spacing" textLength="934.9248" x="15" y="37.1182">&#1040;&#1083;&#1075;&#1086;&#1088;&#1080;&#1090;&#1084; &#1086;&#1073;&#1093;&#1086;&#1076;&#1072; &#1082;&#1086;&#1085;&#1103; - &#1057;&#1090;&#1088;&#1072;&#1085;&#1080;&#1094;&#1072; 1: &#1054;&#1089;&#1085;&#1086;&#1074;&#1085;&#1086;&#1081; &#1072;&#1083;&#1075;&#1086;&#1088;&#1080;&#1090;&#1084; SolveKnightTour</text></g><ellipse cx="337.908" cy="62.7373" fill="#FFFFFF" rx="10" ry="10" style="stroke:#000000;stroke-width:1;"/><rect fill="#E6F3FF" height="32.1533" rx="12.5" ry="12.5" style="stroke:#4A90E2;stroke-width:1;" width="157.041" x="259.3875" y="92.7373"/><text fill="#000000" font-family="Verdana" font-size="10" lengthAdjust="spacing" textLength="137.041" x="269.3875" y="112.791">&#1055;&#1086;&#1083;&#1091;&#1095;&#1080;&#1090;&#1100; &#1082;&#1086;&#1086;&#1088;&#1076;&#1080;&#1085;&#1072;&#1090;&#1099; x, y</text><path d="M449.3044,134.8906 L449.3044,159.5896 L429.3044,163.5896 L449.3044,167.5896 L449.3044,192.2886 A0,0 0 0 0 449.3044,192.2886 L651.4094,192.2886 A0,0 0 0 0 651.4094,192.2886 L651.4094,144.8906 L641.4094,134.8906 L449.3044,134.8906 A0,0 0 0 0 449.3044,134.8906" fill="#FFFFFF" style="stroke:#000000;stroke-width:1;"/><path d="M641.4094,134.8906 L641.4094,144.8906 L651.4094,144.8906 L641.4094,134.8906" fill="#FFFFFF" style="stroke:#000000;stroke-width:1;"/><text fill="#000000" font-family="Verdana" font-size="13" lengthAdjust="spacing" textLength="169.8633" x="455.3044" y="152.9604">Board[x][y] = MoveCount</text><text fill="#000000" font-family="Verdana" font-size="13" lengthAdjust="spacing" textLength="181.105" x="455.3044" y="168.7598">Path.append(Position{x,y})</text><text fill="#000000" font-family="Verdana" font-size="13" lengthAdjust="spacing" textLength="94.104" x="455.3044" y="184.5591">MoveCount++</text><rect fill="#E6F3FF" height="32.1533" rx="12.5" ry="12.5" style="stroke:#4A90E2;stroke-width:1;" width="182.793" x="246.5115" y="147.5129"/><text fill="#000000" font-family="Verdana" font-size="10" lengthAdjust="spacing" textLength="162.793" x="256.5115" y="167.5667">&#1055;&#1086;&#1084;&#1077;&#1090;&#1080;&#1090;&#1100; &#1082;&#1083;&#1077;&#1090;&#1082;&#1091; &#1085;&#1086;&#1084;&#1077;&#1088;&#1086;&#1084; &#1093;&#1086;&#1076;&#1072;</text><rect fill="#E6F3FF" height="32.1533" rx="12.5" ry="12.5" style="stroke:#4A90E2;stroke-width:1;" width="206.0645" x="234.8757" y="212.2886"/><text fill="#000000" font-family="Verdana" font-size="10" lengthAdjust="spacing" textLength="186.0645" x="244.8757" y="232.3423">&#1047;&#1072;&#1076;&#1077;&#1088;&#1078;&#1082;&#1072; 100ms &#1076;&#1083;&#1103; &#1074;&#1080;&#1079;&#1091;&#1072;&#1083;&#1080;&#1079;&#1072;&#1094;&#1080;&#1080;</text><rect fill="#E6F3FF" height="32.1533" rx="12.5" ry="12.5" style="stroke:#4A90E2;stroke-width:1;" width="89.4629" x="293.1765" y="313.1262"/><text fill="#000000" font-family="Verdana" font-size="10" lengthAdjust="spacing" textLength="69.4629" x="303.1765" y="333.1799">Solved = true</text><rect fill="#E6F3FF" height="32.1533" rx="12.5" ry="12.5" style="stroke:#4A90E2;stroke-width:1;" width="75.0977" x="300.3591" y="365.2795"/><text fill="#000000" font-family="Verdana" font-size="10" lengthAdjust="spacing" textLength="55.0977" x="310.3591" y="385.3333">return true</text><ellipse cx="337.908" cy="428.4329" fill="none" rx="11" ry="11" style="stroke:#000000;stroke-width:1;"/><ellipse cx="337.908" cy="428.4329" fill="#FFFFFF" rx="6" ry="6" style="stroke:#000000;stroke-width:1;"/><polygon fill="#E6F3FF" points="289.114,264.4419,386.7019,264.4419,398.7019,276.4419,386.7019,288.4419,289.114,288.4419,277.114,276.4419,289.114,264.4419" style="stroke:#4A90E2;stroke-width:1;"/><text fill="#000000" font-family="Verdana" font-size="11" lengthAdjust="spacing" textLength="13.4438" x="341.908" y="299.501">&#1076;&#1072;</text><text fill="#000000" font-family="Verdana" font-size="10" lengthAdjust="spacing" textLength="97.5879" x="289.114" y="280.4189">MoveCount == 64?</text><text fill="#000000" font-family="Verdana" font-size="11" lengthAdjust="spacing" textLength="19.019" x="398.7019" y="274.1323">&#1085;&#1077;&#1090;</text><rect fill="#E6F3FF" height="32.1533" rx="12.5" ry="12.5" style="stroke:#4A90E2;stroke-width:1;" width="184.2041" x="245.8059" y="481.4329"/><text fill="#000000" font-family="Verdana" font-size="10" lengthAdjust="spacing" textLength="164.2041" x="255.8059" y="501.4866">&#1057;&#1086;&#1079;&#1076;&#1072;&#1090;&#1100; &#1087;&#1091;&#1089;&#1090;&#1086;&#1081; &#1089;&#1087;&#1080;&#1089;&#1086;&#1082; moves[]</text><path d="M463.3254,523.5862 L463.3254,556.1848 L443.3254,560.1848 L463.3254,564.1848 L463.3254,596.7834 A0,0 0 0 0 463.3254,596.7834 L700.7551,596.7834 A0,0 0 0 0 700.7551,596.7834 L700.7551,533.5862 L690.7551,523.5862 L463.3254,523.5862 A0,0 0 0 0 463.3254,523.5862" fill="#FFFFFF" style="stroke:#000000;stroke-width:1;"/><path d="M690.7551,523.5862 L690.7551,533.5862 L700.7551,533.5862 L690.7551,523.5862" fill="#FFFFFF" style="stroke:#000000;stroke-width:1;"/><text fill="#000000" font-family="Verdana" font-size="13" lengthAdjust="spacing" textLength="180.9717" x="469.3254" y="541.656">knightMoves = [8]Position{</text><text fill="#000000" font-family="Verdana" font-size="13" lengthAdjust="spacing" textLength="207.2891" x="478.4661" y="557.4553">{2,1}, {2,-1}, {-2,1}, {-2,-1},</text><text fill="#000000" font-family="Verdana" font-size="13" lengthAdjust="spacing" textLength="202.5601" x="478.4661" y="573.2546">{1,2}, {1,-2}, {-1,2}, {-1,-2}</text><text fill="#000000" font-family="Verdana" font-size="13" lengthAdjust="spacing" textLength="8.252" x="469.3254" y="589.054">}</text><rect fill="#E6F3FF" height="32.1533" rx="12.5" ry="12.5" style="stroke:#4A90E2;stroke-width:1;" width="210.835" x="232.4905" y="544.1082"/><text fill="#000000" font-family="Verdana" font-size="10" lengthAdjust="spacing" textLength="190.835" x="242.4905" y="564.1619">&#1044;&#1083;&#1103; &#1082;&#1072;&#1078;&#1076;&#1086;&#1075;&#1086; &#1080;&#1079; 8 &#1085;&#1072;&#1087;&#1088;&#1072;&#1074;&#1083;&#1077;&#1085;&#1080;&#1081; &#1082;&#1086;&#1085;&#1103;</text><path d="M446.5994,612.0608 L446.5994,628.8601 L426.5994,632.8601 L446.5994,636.8601 L446.5994,653.6594 A0,0 0 0 0 446.5994,653.6594 L580.3782,653.6594 A0,0 0 0 0 580.3782,653.6594 L580.3782,622.0608 L570.3782,612.0608 L446.5994,612.0608 A0,0 0 0 0 446.5994,612.0608" fill="#FFFFFF" style="stroke:#000000;stroke-width:1;"/><path d="M570.3782,612.0608 L570.3782,622.0608 L580.3782,622.0608 L570.3782,612.0608" fill="#FFFFFF" style="stroke:#000000;stroke-width:1;"/><text fill="#000000" font-family="Verdana" font-size="13" lengthAdjust="spacing" textLength="112.7788" x="452.5994" y="630.1306">nx = x + move.X</text><text fill="#000000" font-family="Verdana" font-size="13" lengthAdjust="spacing" textLength="111.8711" x="452.5994" y="645.9299">ny = y + move.Y</text><rect fill="#E6F3FF" height="32.1533" rx="12.5" ry="12.5" style="stroke:#4A90E2;stroke-width:1;" width="177.3828" x="249.2166" y="616.7834"/><text fill="#000000" font-family="Verdana" font-size="10" lengthAdjust="spacing" textLength="157.3828" x="259.2166" y="636.8372">&#1042;&#1099;&#1095;&#1080;&#1089;&#1083;&#1080;&#1090;&#1100; &#1085;&#1086;&#1074;&#1099;&#1077; &#1082;&#1086;&#1086;&#1088;&#1076;&#1080;&#1085;&#1072;&#1090;&#1099;</text><rect fill="#E6F3FF" height="32.1533" rx="12.5" ry="12.5" style="stroke:#4A90E2;stroke-width:1;" width="123.6328" x="276.0916" y="722.3438"/><text fill="#000000" font-family="Verdana" font-size="10" lengthAdjust="spacing" textLength="103.6328" x="286.0916" y="742.3975">&#1044;&#1086;&#1073;&#1072;&#1074;&#1080;&#1090;&#1100; &#1074; moves[]</text><polygon fill="#E6F3FF" points="285.3738,673.6594,390.4421,673.6594,402.4421,685.6594,390.4421,697.6594,285.3738,697.6594,273.3738,685.6594,285.3738,673.6594" style="stroke:#4A90E2;stroke-width:1;"/><text fill="#000000" font-family="Verdana" font-size="11" lengthAdjust="spacing" textLength="13.4438" x="341.908" y="708.7185">&#1076;&#1072;</text><text fill="#000000" font-family="Verdana" font-size="10" lengthAdjust="spacing" textLength="105.0684" x="285.3738" y="689.6365">isValidMove(nx, ny)?</text><polygon fill="#E6F3FF" points="337.908,774.4971,349.908,786.4971,337.908,798.4971,325.908,786.4971,337.908,774.4971" style="stroke:#4A90E2;stroke-width:1;"/><path d="M457.8396,821.6741 L457.8396,830.5737 L437.8396,834.5737 L457.8396,838.5737 L457.8396,847.4734 A0,0 0 0 0 457.8396,847.4734 L779.6931,847.4734 A0,0 0 0 0 779.6931,847.4734 L779.6931,831.6741 L769.6931,821.6741 L457.8396,821.6741 A0,0 0 0 0 457.8396,821.6741" fill="#FFFFFF" style="stroke:#000000;stroke-width:1;"/><path d="M769.6931,821.6741 L769.6931,831.6741 L779.6931,831.6741 L769.6931,821.6741" fill="#FFFFFF" style="stroke:#000000;stroke-width:1;"/><text fill="#000000" font-family="Verdana" font-size="13" lengthAdjust="spacing" textLength="300.8535" x="463.8396" y="839.7439">&#1057;&#1086;&#1088;&#1090;&#1080;&#1088;&#1086;&#1074;&#1082;&#1072; &#1087;&#1086; &#1082;&#1086;&#1083;&#1080;&#1095;&#1077;&#1089;&#1090;&#1074;&#1091; &#1076;&#1086;&#1089;&#1090;&#1091;&#1087;&#1085;&#1099;&#1093; &#1093;&#1086;&#1076;&#1086;&#1074;</text><rect fill="#E6F3FF" height="32.1533" rx="12.5" ry="12.5" style="stroke:#4A90E2;stroke-width:1;" width="199.8633" x="237.9763" y="818.4971"/><text fill="#000000" font-family="Verdana" font-size="10" lengthAdjust="spacing" textLength="179.8633" x="247.9763" y="838.5508">&#1055;&#1088;&#1080;&#1084;&#1077;&#1085;&#1080;&#1090;&#1100; &#1101;&#1074;&#1088;&#1080;&#1089;&#1090;&#1080;&#1082;&#1091; &#1042;&#1072;&#1088;&#1085;&#1089;&#1076;&#1086;&#1088;&#1092;&#1072;</text><rect fill="#E6F3FF" height="32.1533" rx="12.5" ry="12.5" style="stroke:#4A90E2;stroke-width:1;" width="262.3877" x="206.7141" y="870.6504"/><text fill="#000000" font-family="Verdana" font-size="10" lengthAdjust="spacing" textLength="242.3877" x="216.7141" y="890.7041">&#1044;&#1083;&#1103; &#1082;&#1072;&#1078;&#1076;&#1086;&#1075;&#1086; &#1093;&#1086;&#1076;&#1072; &#1074; &#1086;&#1090;&#1089;&#1086;&#1088;&#1090;&#1080;&#1088;&#1086;&#1074;&#1072;&#1085;&#1085;&#1086;&#1084; moves[]</text><rect fill="#E6F3FF" height="32.1533" rx="12.5" ry="12.5" style="stroke:#4A90E2;stroke-width:1;" width="301.3525" x="187.2317" y="922.8037"/><text fill="#000000" font-family="Verdana" font-size="10" lengthAdjust="spacing" textLength="281.3525" x="197.2317" y="942.8574">&#1056;&#1077;&#1082;&#1091;&#1088;&#1089;&#1080;&#1074;&#1085;&#1099;&#1081; &#1074;&#1099;&#1079;&#1086;&#1074; SolveKnightTour(move.X, move.Y)</text><rect fill="#E6F3FF" height="32.1533" rx="12.5" ry="12.5" style="stroke:#4A90E2;stroke-width:1;" width="75.0977" x="300.3591" y="1023.6414"/><text fill="#000000" font-family="Verdana" font-size="10" lengthAdjust="spacing" textLength="55.0977" x="310.3591" y="1043.6951">return true</text><ellipse cx="337.908" cy="1096.218" fill="none" rx="11" ry="11" style="stroke:#000000;stroke-width:1;"/><ellipse cx="337.908" cy="1096.218" fill="#FFFFFF" rx="6" ry="6" style="stroke:#000000;stroke-width:1;"/><polygon fill="#E6F3FF" points="287.073,974.957,388.7429,974.957,400.7429,986.957,388.7429,998.957,287.073,998.957,275.073,986.957,287.073,974.957" style="stroke:#4A90E2;stroke-width:1;"/><text fill="#000000" font-family="Verdana" font-size="11" lengthAdjust="spacing" textLength="13.4438" x="341.908" y="1010.0161">&#1076;&#1072;</text><text fill="#000000" font-family="Verdana" font-size="10" lengthAdjust="spacing" textLength="101.6699" x="287.073" y="990.9341">&#1042;&#1099;&#1079;&#1086;&#1074; &#1074;&#1077;&#1088;&#1085;&#1091;&#1083; true?</text><rect fill="#E6F3FF" height="32.1533" rx="12.5" ry="12.5" style="stroke:#4A90E2;stroke-width:1;" width="188.3008" x="243.7576" y="1149.218"/><text fill="#000000" font-family="Verdana" font-size="10" lengthAdjust="spacing" textLength="168.3008" x="253.7576" y="1169.2717">&#1042;&#1089;&#1077; &#1093;&#1086;&#1076;&#1099; &#1087;&#1088;&#1086;&#1074;&#1077;&#1088;&#1077;&#1085;&#1099; &#1073;&#1077;&#1079; &#1091;&#1089;&#1087;&#1077;&#1093;&#1072;</text><path d="M446.8411,1191.3713 L446.8411,1216.0703 L426.8411,1220.0703 L446.8411,1224.0703 L446.8411,1248.7693 A0,0 0 0 0 446.8411,1248.7693 L637.8313,1248.7693 A0,0 0 0 0 637.8313,1248.7693 L637.8313,1201.3713 L627.8313,1191.3713 L446.8411,1191.3713 A0,0 0 0 0 446.8411,1191.3713" fill="#FFFFFF" style="stroke:#000000;stroke-width:1;"/><path d="M627.8313,1191.3713 L627.8313,1201.3713 L637.8313,1201.3713 L627.8313,1191.3713" fill="#FFFFFF" style="stroke:#000000;stroke-width:1;"/><text fill="#000000" font-family="Verdana" font-size="13" lengthAdjust="spacing" textLength="111.2046" x="452.8411" y="1209.4412">Board[x][y] = -1</text><text fill="#000000" font-family="Verdana" font-size="13" lengthAdjust="spacing" textLength="169.9902" x="452.8411" y="1225.2405">Path = Path[:len(Path)-1]</text><text fill="#000000" font-family="Verdana" font-size="13" lengthAdjust="spacing" textLength="84.6333" x="452.8411" y="1241.0398">MoveCount--</text><rect fill="#E6F3FF" height="32.1533" rx="12.5" ry="12.5" style="stroke:#4A90E2;stroke-width:1;" width="177.8662" x="248.9749" y="1203.9937"/><text fill="#000000" font-family="Verdana" font-size="10" lengthAdjust="spacing" textLength="157.8662" x="258.9749" y="1224.0474">&#1041;&#1101;&#1082;&#1090;&#1088;&#1077;&#1082;&#1080;&#1085;&#1075; - &#1086;&#1090;&#1082;&#1072;&#1090; &#1080;&#1079;&#1084;&#1077;&#1085;&#1077;&#1085;&#1080;&#1081;</text><rect fill="#E6F3FF" height="32.1533" rx="12.5" ry="12.5" style="stroke:#4A90E2;stroke-width:1;" width="78.0371" x="298.8894" y="1268.7693"/><text fill="#000000" font-family="Verdana" font-size="10" lengthAdjust="spacing" textLength="58.0371" x="308.8894" y="1288.823">return false</text><ellipse cx="337.908" cy="1331.9226" fill="none" rx="11" ry="11" style="stroke:#000000;stroke-width:1;"/><ellipse cx="337.908" cy="1331.9226" fill="#FFFFFF" rx="6" ry="6" style="stroke:#000000;stroke-width:1;"/><line style="stroke:#000000;stroke-width:1;" x1="337.908" x2="337.908" y1="72.7373" y2="92.7373"/><polygon fill="#000000" points="333.908,82.7373,337.908,92.7373,341.908,82.7373,337.908,86.7373" style="stroke:#000000;stroke-width:1;"/><line style="stroke:#000000;stroke-width:1;" x1="337.908" x2="337.908" y1="124.8906" y2="147.5129"/><polygon fill="#000000" points="333.908,137.5129,337.908,147.5129,341.908,137.5129,337.908,141.5129" style="stroke:#000000;stroke-width:1;"/><line style="stroke:#000000;stroke-width:1;" x1="337.908" x2="337.908" y1="179.6663" y2="212.2886"/><polygon fill="#000000" points="333.908,202.2886,337.908,212.2886,341.908,202.2886,337.908,206.2886" style="stroke:#000000;stroke-width:1;"/><line style="stroke:#000000;stroke-width:1;" x1="337.908" x2="337.908" y1="345.2795" y2="365.2795"/><polygon fill="#000000" points="333.908,355.2795,337.908,365.2795,341.908,355.2795,337.908,359.2795" style="stroke:#000000;stroke-width:1;"/><line style="stroke:#000000;stroke-width:1;" x1="337.908" x2="337.908" y1="397.4329" y2="417.4329"/><polygon fill="#000000" points="333.908,407.4329,337.908,417.4329,341.908,407.4329,337.908,411.4329" style="stroke:#000000;stroke-width:1;"/><line style="stroke:#000000;stroke-width:1;" x1="337.908" x2="337.908" y1="288.4419" y2="313.1262"/><polygon fill="#000000" points="333.908,303.1262,337.908,313.1262,341.908,303.1262,337.908,307.1262" style="stroke:#000000;stroke-width:1;"/><line style="stroke:#000000;stroke-width:1;" x1="398.7019" x2="410.7019" y1="276.4419" y2="276.4419"/><polygon fill="#000000" points="406.7019,363.2795,410.7019,373.2795,414.7019,363.2795,410.7019,367.2795" style="stroke:#000000;stroke-width:1;"/><line style="stroke:#000000;stroke-width:1;" x1="410.7019" x2="410.7019" y1="276.4419" y2="461.4329"/><line style="stroke:#000000;stroke-width:1;" x1="410.7019" x2="337.908" y1="461.4329" y2="461.4329"/><line style="stroke:#000000;stroke-width:1;" x1="337.908" x2="337.908" y1="461.4329" y2="481.4329"/><polygon fill="#000000" points="333.908,471.4329,337.908,481.4329,341.908,471.4329,337.908,475.4329" style="stroke:#000000;stroke-width:1;"/><line style="stroke:#000000;stroke-width:1;" x1="337.908" x2="337.908" y1="244.4419" y2="264.4419"/><polygon fill="#000000" points="333.908,254.4419,337.908,264.4419,341.908,254.4419,337.908,258.4419" style="stroke:#000000;stroke-width:1;"/><line style="stroke:#000000;stroke-width:1;" x1="337.908" x2="337.908" y1="513.5862" y2="544.1082"/><polygon fill="#000000" points="333.908,534.1082,337.908,544.1082,341.908,534.1082,337.908,538.1082" style="stroke:#000000;stroke-width:1;"/><line style="stroke:#000000;stroke-width:1;" x1="337.908" x2="337.908" y1="576.2615" y2="616.7834"/><polygon fill="#000000" points="333.908,606.7834,337.908,616.7834,341.908,606.7834,337.908,610.7834" style="stroke:#000000;stroke-width:1;"/><line style="stroke:#000000;stroke-width:1;" x1="337.908" x2="337.908" y1="697.6594" y2="722.3438"/><polygon fill="#000000" points="333.908,712.3438,337.908,722.3438,341.908,712.3438,337.908,716.3438" style="stroke:#000000;stroke-width:1;"/><line style="stroke:#000000;stroke-width:1;" x1="402.4421" x2="414.4421" y1="685.6594" y2="685.6594"/><polygon fill="#000000" points="410.4421,728.4204,414.4421,738.4204,418.4421,728.4204,414.4421,732.4204" style="stroke:#000000;stroke-width:1;"/><line style="stroke:#000000;stroke-width:1;" x1="414.4421" x2="414.4421" y1="685.6594" y2="786.4971"/><line style="stroke:#000000;stroke-width:1;" x1="414.4421" x2="349.908" y1="786.4971" y2="786.4971"/><polygon fill="#000000" points="359.908,782.4971,349.908,786.4971,359.908,790.4971,355.908,786.4971" style="stroke:#000000;stroke-width:1;"/><line style="stroke:#000000;stroke-width:1;" x1="337.908" x2="337.908" y1="754.4971" y2="774.4971"/><polygon fill="#000000" points="333.908,764.4971,337.908,774.4971,341.908,764.4971,337.908,768.4971" style="stroke:#000000;stroke-width:1;"/><line style="stroke:#000000;stroke-width:1;" x1="337.908" x2="337.908" y1="648.9368" y2="673.6594"/><polygon fill="#000000" points="333.908,663.6594,337.908,673.6594,341.908,663.6594,337.908,667.6594" style="stroke:#000000;stroke-width:1;"/><line style="stroke:#000000;stroke-width:1;" x1="337.908" x2="337.908" y1="798.4971" y2="818.4971"/><polygon fill="#000000" points="333.908,808.4971,337.908,818.4971,341.908,808.4971,337.908,812.4971" style="stroke:#000000;stroke-width:1;"/><line style="stroke:#000000;stroke-width:1;" x1="337.908" x2="337.908" y1="850.6504" y2="870.6504"/><polygon fill="#000000" points="333.908,860.6504,337.908,870.6504,341.908,860.6504,337.908,864.6504" style="stroke:#000000;stroke-width:1;"/><line style="stroke:#000000;stroke-width:1;" x1="337.908" x2="337.908" y1="902.8037" y2="922.8037"/><polygon fill="#000000" points="333.908,912.8037,337.908,922.8037,341.908,912.8037,337.908,916.8037" style="stroke:#000000;stroke-width:1;"/><line style="stroke:#000000;stroke-width:1;" x1="337.908" x2="337.908" y1="1055.7947" y2="1085.218"/><polygon fill="#000000" points="333.908,1075.218,337.908,1085.218,341.908,1075.218,337.908,1079.218" style="stroke:#000000;stroke-width:1;"/><line style="stroke:#000000;stroke-width:1;" x1="337.908" x2="337.908" y1="998.957" y2="1023.6414"/><polygon fill="#000000" points="333.908,1013.6414,337.908,1023.6414,341.908,1013.6414,337.908,1017.6414" style="stroke:#000000;stroke-width:1;"/><line style="stroke:#000000;stroke-width:1;" x1="400.7429" x2="412.7429" y1="986.957" y2="986.957"/><polygon fill="#000000" points="408.7429,1055.218,412.7429,1065.218,416.7429,1055.218,412.7429,1059.218" style="stroke:#000000;stroke-width:1;"/><line style="stroke:#000000;stroke-width:1;" x1="412.7429" x2="412.7429" y1="986.957" y2="1129.218"/><line style="stroke:#000000;stroke-width:1;" x1="412.7429" x2="337.908" y1="1129.218" y2="1129.218"/><line style="stroke:#000000;stroke-width:1;" x1="337.908" x2="337.908" y1="1129.218" y2="1149.218"/><polygon fill="#000000" points="333.908,1139.218,337.908,1149.218,341.908,1139.218,337.908,1143.218" style="stroke:#000000;stroke-width:1;"/><line style="stroke:#000000;stroke-width:1;" x1="337.908" x2="337.908" y1="954.957" y2="974.957"/><polygon fill="#000000" points="333.908,964.957,337.908,974.957,341.908,964.957,337.908,968.957" style="stroke:#000000;stroke-width:1;"/><line style="stroke:#000000;stroke-width:1;" x1="337.908" x2="337.908" y1="1181.3713" y2="1203.9937"/><polygon fill="#000000" points="333.908,1193.9937,337.908,1203.9937,341.908,1193.9937,337.908,1197.9937" style="stroke:#000000;stroke-width:1;"/><line style="stroke:#000000;stroke-width:1;" x1="337.908" x2="337.908" y1="1236.147" y2="1268.7693"/><polygon fill="#000000" points="333.908,1258.7693,337.908,1268.7693,341.908,1258.7693,337.908,1262.7693" style="stroke:#000000;stroke-width:1;"/><line style="stroke:#000000;stroke-width:1;" x1="337.908" x2="337.908" y1="1300.9226" y2="1320.9226"/><polygon fill="#000000" points="333.908,1310.9226,337.908,1320.9226,341.908,1310.9226,337.908,1314.9226" style="stroke:#000000;stroke-width:1;"/><!--SRC=[VLJHJXfH47tVhvYcBn1P0vOG2p6DDV3ID35fqxGXF6narOsmItPN0pKa85KVQDFMDEbRhNz04Ie5nL-uzuzwvkw2WBOlU_VEdJjtvfmpyyZVDSicLKg6PMlUdcLN3DSeax7bMmUMNwD3ZUYviRMtuphxTd73AJakFSwcSazoEJvntABfXjRa-jDuTWNMd6Fxhwpt9YNYMdqcQD7SiZpBiHyEcijbKzdKOj3iId8zkNulgEPRViaayKMCnAKOouOOo2DnJM8iVibZV7kYGsA8dnlvcNGI5_88JXrn0ySJd2NI97x89lPZqLNVFuJZ-MYldDA1-SAsTdRzryw-gscURxY-fgN5EIwCP4kUigVy63p55tjYW6WT6DjKZL4jC_6-5dt4d7gFr7OeMwGUvzC6hpJ9FgFPZc-IouyhK0otcAyMyhK2hT5Bvy3S07Pyicdukyj6fMBQnSYcura-43winchrA0wdZajB6Xo8Ot96tr5hJxtv6ya0ZdYyx15C8y05G0RYIhOK7lX3EITO1wZ5sgR8D2QjhL4g-InAq91D4SwQtqmhs8f8qtVtpGnRNDFVT-tftlETYcQMF1ENRXY8A2TdRNDc5oZ_YaC5IDq2v2QGOdv0roqGR68pf3AoyF85XU-t86qKWd9wE0Q9n9dJAiFRGHJclikeimAOwr0R2p3lARAvGW_vvrSBKqHnI7Iu4alKOxpeQjN3lHuO0fz4R8LjYPYkLZtSwye0b_eS4sUohLJKPAo3cfKcPLlq7vJLGiPs5ObMQKa1iloMBJLOQXFBkvdNc3tBUsEKh2AN6B6XKBiMlSyW44KZASZ2dBftW4-fEkT6OUcghc8t-Gc9S_SmPOD0tcT8km6ecyoCRCWFyzf67rueEpT7GtKZ2n9CZuFo6PPJY8H3TZaWXy46-hn5sBOydlGCxlvJ3NT3eOiXWTlDXKTvDAXEd5FMJnI7Ak3PH3rTVe_5m-nSyRN54H49M8Y5s4V3bc6Mmmi8qbTujCH8DSHzz1_ibWdePyYa7vQ36QEaFGw3zZa_0d5zI9yR1mZruTfHjNm5EqCr1b6JqjCbJyOnpo6MbkgOaCwmJVuxXFH4E7tmpqi-NJBj2Fz5zKHXTlZe-gpam_As3Go03CzKbFSN]--></g></svg>