<svg xmlns="http://www.w3.org/2000/svg" xmlns:xlink="http://www.w3.org/1999/xlink" contentStyleType="text/css" data-diagram-type="ACTIVITY" height="901px" preserveAspectRatio="none" style="width:980px;height:901px;background:#FFFFFF;" version="1.1" viewBox="0 0 980 901" width="980px" zoomAndPan="magnify"><title>&#1040;&#1083;&#1075;&#1086;&#1088;&#1080;&#1090;&#1084; &#1086;&#1073;&#1093;&#1086;&#1076;&#1072; &#1082;&#1086;&#1085;&#1103; - &#1057;&#1090;&#1088;&#1072;&#1085;&#1080;&#1094;&#1072; 4: &#1069;&#1074;&#1088;&#1080;&#1089;&#1090;&#1080;&#1082;&#1072; &#1042;&#1072;&#1088;&#1085;&#1089;&#1076;&#1086;&#1088;&#1092;&#1072; (&#1089;&#1086;&#1088;&#1090;&#1080;&#1088;&#1086;&#1074;&#1082;&#1072;)</title><defs/><g><g class="title" data-source-line="185"><text fill="#000000" font-family="Verdana" font-size="22" font-weight="bold" lengthAdjust="spacing" textLength="947.1494" x="15" y="37.1182">&#1040;&#1083;&#1075;&#1086;&#1088;&#1080;&#1090;&#1084; &#1086;&#1073;&#1093;&#1086;&#1076;&#1072; &#1082;&#1086;&#1085;&#1103; - &#1057;&#1090;&#1088;&#1072;&#1085;&#1080;&#1094;&#1072; 4: &#1069;&#1074;&#1088;&#1080;&#1089;&#1090;&#1080;&#1082;&#1072; &#1042;&#1072;&#1088;&#1085;&#1089;&#1076;&#1086;&#1088;&#1092;&#1072; (&#1089;&#1086;&#1088;&#1090;&#1080;&#1088;&#1086;&#1074;&#1082;&#1072;)</text></g><ellipse cx="376.0161" cy="62.7373" fill="#FFFFFF" rx="10" ry="10" style="stroke:#000000;stroke-width:1;"/><rect fill="#E6F3FF" height="32.1533" rx="12.5" ry="12.5" style="stroke:#4A90E2;stroke-width:1;" width="153.2715" x="299.3804" y="92.7373"/><text fill="#000000" font-family="Verdana" font-size="10" lengthAdjust="spacing" textLength="133.2715" x="309.3804" y="112.791">&#1055;&#1086;&#1083;&#1091;&#1095;&#1080;&#1090;&#1100; &#1089;&#1087;&#1080;&#1089;&#1086;&#1082; moves[]</text><path d="M466.3652,140.168 L466.3652,156.9673 L446.3652,160.9673 L466.3652,164.9673 L466.3652,181.7666 A0,0 0 0 0 466.3652,181.7666 L766.0654,181.7666 A0,0 0 0 0 766.0654,181.7666 L766.0654,150.168 L756.0654,140.168 L466.3652,140.168 A0,0 0 0 0 466.3652,140.168" fill="#FFFFFF" style="stroke:#000000;stroke-width:1;"/><path d="M756.0654,140.168 L756.0654,150.168 L766.0654,150.168 L756.0654,140.168" fill="#FFFFFF" style="stroke:#000000;stroke-width:1;"/><text fill="#000000" font-family="Verdana" font-size="13" lengthAdjust="spacing" textLength="278.7002" x="472.3652" y="158.2378">&#1057;&#1086;&#1088;&#1090;&#1080;&#1088;&#1086;&#1074;&#1072;&#1090;&#1100; &#1087;&#1086; &#1074;&#1086;&#1079;&#1088;&#1072;&#1089;&#1090;&#1072;&#1085;&#1080;&#1102; &#1082;&#1086;&#1083;&#1080;&#1095;&#1077;&#1089;&#1090;&#1074;&#1072;</text><text fill="#000000" font-family="Verdana" font-size="13" lengthAdjust="spacing" textLength="259.6572" x="472.3652" y="174.0371">&#1076;&#1086;&#1089;&#1090;&#1091;&#1087;&#1085;&#1099;&#1093; &#1093;&#1086;&#1076;&#1086;&#1074; &#1076;&#1083;&#1103; &#1082;&#1072;&#1078;&#1076;&#1086;&#1081; &#1087;&#1086;&#1079;&#1080;&#1094;&#1080;&#1080;</text><rect fill="#E6F3FF" height="32.1533" rx="12.5" ry="12.5" style="stroke:#4A90E2;stroke-width:1;" width="140.6982" x="305.667" y="144.8906"/><text fill="#000000" font-family="Verdana" font-size="10" lengthAdjust="spacing" textLength="120.6982" x="315.667" y="164.9443">&#1057;&#1086;&#1088;&#1090;&#1080;&#1088;&#1086;&#1074;&#1082;&#1072; &#1087;&#1091;&#1079;&#1099;&#1088;&#1100;&#1082;&#1086;&#1084;</text><rect fill="#E6F3FF" height="32.1533" rx="12.5" ry="12.5" style="stroke:#4A90E2;stroke-width:1;" width="44.3164" x="353.8579" y="201.7666"/><text fill="#000000" font-family="Verdana" font-size="10" lengthAdjust="spacing" textLength="24.3164" x="363.8579" y="221.8203">i = 0</text><rect fill="#E6F3FF" height="32.1533" rx="12.5" ry="12.5" style="stroke:#4A90E2;stroke-width:1;" width="62.9736" x="344.5293" y="310.479"/><text fill="#000000" font-family="Verdana" font-size="10" lengthAdjust="spacing" textLength="42.9736" x="354.5293" y="330.5327">j = i + 1</text><rect fill="#E6F3FF" height="32.1533" rx="12.5" ry="12.5" style="stroke:#4A90E2;stroke-width:1;" width="235.166" x="258.4331" y="419.1914"/><text fill="#000000" font-family="Verdana" font-size="10" lengthAdjust="spacing" textLength="215.166" x="268.4331" y="439.2451">&#1055;&#1086;&#1083;&#1091;&#1095;&#1080;&#1090;&#1100; &#1082;&#1086;&#1083;&#1080;&#1095;&#1077;&#1089;&#1090;&#1074;&#1086; &#1093;&#1086;&#1076;&#1086;&#1074; &#1076;&#1083;&#1103; moves[i]</text><rect fill="#E6F3FF" height="32.1533" rx="12.5" ry="12.5" style="stroke:#4A90E2;stroke-width:1;" width="235.8643" x="258.084" y="471.3447"/><text fill="#000000" font-family="Verdana" font-size="10" lengthAdjust="spacing" textLength="215.8643" x="268.084" y="491.3984">&#1055;&#1086;&#1083;&#1091;&#1095;&#1080;&#1090;&#1100; &#1082;&#1086;&#1083;&#1080;&#1095;&#1077;&#1089;&#1090;&#1074;&#1086; &#1093;&#1086;&#1076;&#1086;&#1074; &#1076;&#1083;&#1103; moves[j]</text><rect fill="#E6F3FF" height="32.1533" rx="12.5" ry="12.5" style="stroke:#4A90E2;stroke-width:1;" width="222.71" x="264.6611" y="572.3667"/><text fill="#000000" font-family="Verdana" font-size="10" lengthAdjust="spacing" textLength="202.71" x="274.6611" y="592.4204">&#1055;&#1086;&#1084;&#1077;&#1085;&#1103;&#1090;&#1100; &#1084;&#1077;&#1089;&#1090;&#1072;&#1084;&#1080; moves[i] &#1080; moves[j]</text><polygon fill="#E6F3FF" points="294.0483,523.6824,457.9839,523.6824,469.9839,535.6824,457.9839,547.6824,294.0483,547.6824,282.0483,535.6824,294.0483,523.6824" style="stroke:#4A90E2;stroke-width:1;"/><text fill="#000000" font-family="Verdana" font-size="11" lengthAdjust="spacing" textLength="13.4438" x="380.0161" y="558.7415">&#1076;&#1072;</text><text fill="#000000" font-family="Verdana" font-size="10" lengthAdjust="spacing" textLength="163.9355" x="294.0483" y="539.6594">countMoves(i) &gt; countMoves(j)?</text><polygon fill="#E6F3FF" points="376.0161,624.52,388.0161,636.52,376.0161,648.52,364.0161,636.52,376.0161,624.52" style="stroke:#4A90E2;stroke-width:1;"/><rect fill="#E6F3FF" height="32.1533" rx="12.5" ry="12.5" style="stroke:#4A90E2;stroke-width:1;" width="39.8096" x="356.1113" y="668.52"/><text fill="#000000" font-family="Verdana" font-size="10" lengthAdjust="spacing" textLength="19.8096" x="366.1113" y="688.5737">j++</text><polygon fill="#E6F3FF" points="335.4644,362.6323,416.5679,362.6323,428.5679,374.6323,416.5679,386.6323,335.4644,386.6323,323.4644,374.6323,335.4644,362.6323" style="stroke:#4A90E2;stroke-width:1;"/><text fill="#000000" font-family="Verdana" font-size="11" lengthAdjust="spacing" textLength="13.4438" x="380.0161" y="397.6914">&#1076;&#1072;</text><text fill="#000000" font-family="Verdana" font-size="10" lengthAdjust="spacing" textLength="81.1035" x="335.4644" y="378.6094">j &lt; len(moves)?</text><text fill="#000000" font-family="Verdana" font-size="11" lengthAdjust="spacing" textLength="19.019" x="304.4453" y="372.3228">&#1085;&#1077;&#1090;</text><rect fill="#E6F3FF" height="32.1533" rx="12.5" ry="12.5" style="stroke:#4A90E2;stroke-width:1;" width="39.1113" x="356.4604" y="742.6733"/><text fill="#000000" font-family="Verdana" font-size="10" lengthAdjust="spacing" textLength="19.1113" x="366.4604" y="762.7271">i++</text><polygon fill="#E6F3FF" points="330.3643,253.9199,421.668,253.9199,433.668,265.9199,421.668,277.9199,330.3643,277.9199,318.3643,265.9199,330.3643,253.9199" style="stroke:#4A90E2;stroke-width:1;"/><text fill="#000000" font-family="Verdana" font-size="11" lengthAdjust="spacing" textLength="13.4438" x="380.0161" y="288.979">&#1076;&#1072;</text><text fill="#000000" font-family="Verdana" font-size="10" lengthAdjust="spacing" textLength="91.3037" x="330.3643" y="269.897">i &lt; len(moves)-1?</text><text fill="#000000" font-family="Verdana" font-size="11" lengthAdjust="spacing" textLength="19.019" x="299.3452" y="263.6104">&#1085;&#1077;&#1090;</text><path d="M494.8198,812.104 L494.8198,828.9033 L474.8198,832.9033 L494.8198,836.9033 L494.8198,853.7026 A0,0 0 0 0 494.8198,853.7026 L743.0088,853.7026 A0,0 0 0 0 743.0088,853.7026 L743.0088,822.104 L733.0088,812.104 L494.8198,812.104 A0,0 0 0 0 494.8198,812.104" fill="#FFFFFF" style="stroke:#000000;stroke-width:1;"/><path d="M733.0088,812.104 L733.0088,822.104 L743.0088,822.104 L733.0088,812.104" fill="#FFFFFF" style="stroke:#000000;stroke-width:1;"/><text fill="#000000" font-family="Verdana" font-size="13" lengthAdjust="spacing" textLength="227.189" x="500.8198" y="830.1738">&#1061;&#1086;&#1076;&#1099; &#1089; &#1085;&#1072;&#1080;&#1084;&#1077;&#1085;&#1100;&#1096;&#1080;&#1084; &#1082;&#1086;&#1083;&#1080;&#1095;&#1077;&#1089;&#1090;&#1074;&#1086;&#1084;</text><text fill="#000000" font-family="Verdana" font-size="13" lengthAdjust="spacing" textLength="190.6011" x="500.8198" y="845.9731">&#1087;&#1088;&#1086;&#1076;&#1086;&#1083;&#1078;&#1077;&#1085;&#1080;&#1081; &#1080;&#1076;&#1091;&#1090; &#1087;&#1077;&#1088;&#1074;&#1099;&#1084;&#1080;</text><rect fill="#E6F3FF" height="32.1533" rx="12.5" ry="12.5" style="stroke:#4A90E2;stroke-width:1;" width="197.6074" x="277.2124" y="816.8267"/><text fill="#000000" font-family="Verdana" font-size="10" lengthAdjust="spacing" textLength="177.6074" x="287.2124" y="836.8804">&#1042;&#1086;&#1079;&#1074;&#1088;&#1072;&#1090; &#1086;&#1090;&#1089;&#1086;&#1088;&#1090;&#1080;&#1088;&#1086;&#1074;&#1072;&#1085;&#1085;&#1086;&#1075;&#1086; &#1089;&#1087;&#1080;&#1089;&#1082;&#1072;</text><ellipse cx="376.0161" cy="884.7026" fill="none" rx="11" ry="11" style="stroke:#000000;stroke-width:1;"/><ellipse cx="376.0161" cy="884.7026" fill="#FFFFFF" rx="6" ry="6" style="stroke:#000000;stroke-width:1;"/><line style="stroke:#000000;stroke-width:1;" x1="376.0161" x2="376.0161" y1="72.7373" y2="92.7373"/><polygon fill="#000000" points="372.0161,82.7373,376.0161,92.7373,380.0161,82.7373,376.0161,86.7373" style="stroke:#000000;stroke-width:1;"/><line style="stroke:#000000;stroke-width:1;" x1="376.0161" x2="376.0161" y1="124.8906" y2="144.8906"/><polygon fill="#000000" points="372.0161,134.8906,376.0161,144.8906,380.0161,134.8906,376.0161,138.8906" style="stroke:#000000;stroke-width:1;"/><line style="stroke:#000000;stroke-width:1;" x1="376.0161" x2="376.0161" y1="177.0439" y2="201.7666"/><polygon fill="#000000" points="372.0161,191.7666,376.0161,201.7666,380.0161,191.7666,376.0161,195.7666" style="stroke:#000000;stroke-width:1;"/><line style="stroke:#000000;stroke-width:1;" x1="376.0161" x2="376.0161" y1="451.3447" y2="471.3447"/><polygon fill="#000000" points="372.0161,461.3447,376.0161,471.3447,380.0161,461.3447,376.0161,465.3447" style="stroke:#000000;stroke-width:1;"/><line style="stroke:#000000;stroke-width:1;" x1="376.0161" x2="376.0161" y1="547.6824" y2="572.3667"/><polygon fill="#000000" points="372.0161,562.3667,376.0161,572.3667,380.0161,562.3667,376.0161,566.3667" style="stroke:#000000;stroke-width:1;"/><line style="stroke:#000000;stroke-width:1;" x1="469.9839" x2="497.3711" y1="535.6824" y2="535.6824"/><polygon fill="#000000" points="493.3711,578.4434,497.3711,588.4434,501.3711,578.4434,497.3711,582.4434" style="stroke:#000000;stroke-width:1;"/><line style="stroke:#000000;stroke-width:1;" x1="497.3711" x2="497.3711" y1="535.6824" y2="636.52"/><line style="stroke:#000000;stroke-width:1;" x1="497.3711" x2="388.0161" y1="636.52" y2="636.52"/><polygon fill="#000000" points="398.0161,632.52,388.0161,636.52,398.0161,640.52,394.0161,636.52" style="stroke:#000000;stroke-width:1;"/><line style="stroke:#000000;stroke-width:1;" x1="376.0161" x2="376.0161" y1="604.52" y2="624.52"/><polygon fill="#000000" points="372.0161,614.52,376.0161,624.52,380.0161,614.52,376.0161,618.52" style="stroke:#000000;stroke-width:1;"/><line style="stroke:#000000;stroke-width:1;" x1="376.0161" x2="376.0161" y1="503.498" y2="523.6824"/><polygon fill="#000000" points="372.0161,513.6824,376.0161,523.6824,380.0161,513.6824,376.0161,517.6824" style="stroke:#000000;stroke-width:1;"/><line style="stroke:#000000;stroke-width:1;" x1="376.0161" x2="376.0161" y1="648.52" y2="668.52"/><polygon fill="#000000" points="372.0161,658.52,376.0161,668.52,380.0161,658.52,376.0161,662.52" style="stroke:#000000;stroke-width:1;"/><line style="stroke:#000000;stroke-width:1;" x1="376.0161" x2="376.0161" y1="386.6323" y2="419.1914"/><polygon fill="#000000" points="372.0161,409.1914,376.0161,419.1914,380.0161,409.1914,376.0161,413.1914" style="stroke:#000000;stroke-width:1;"/><line style="stroke:#000000;stroke-width:1;" x1="376.0161" x2="376.0161" y1="700.6733" y2="710.6733"/><line style="stroke:#000000;stroke-width:1;" x1="376.0161" x2="521.3711" y1="710.6733" y2="710.6733"/><polygon fill="#000000" points="517.3711,546.1824,521.3711,536.1824,525.3711,546.1824,521.3711,542.1824" style="stroke:#000000;stroke-width:1;"/><line style="stroke:#000000;stroke-width:1;" x1="521.3711" x2="521.3711" y1="374.6323" y2="710.6733"/><line style="stroke:#000000;stroke-width:1;" x1="521.3711" x2="428.5679" y1="374.6323" y2="374.6323"/><polygon fill="#000000" points="438.5679,370.6323,428.5679,374.6323,438.5679,378.6323,434.5679,374.6323" style="stroke:#000000;stroke-width:1;"/><line style="stroke:#000000;stroke-width:1;" x1="323.4644" x2="244.084" y1="374.6323" y2="374.6323"/><polygon fill="#000000" points="240.084,532.1824,244.084,542.1824,248.084,532.1824,244.084,536.1824" style="stroke:#000000;stroke-width:1;"/><line style="stroke:#000000;stroke-width:1;" x1="244.084" x2="244.084" y1="374.6323" y2="722.6733"/><line style="stroke:#000000;stroke-width:1;" x1="244.084" x2="376.0161" y1="722.6733" y2="722.6733"/><line style="stroke:#000000;stroke-width:1;" x1="376.0161" x2="376.0161" y1="722.6733" y2="742.6733"/><polygon fill="#000000" points="372.0161,732.6733,376.0161,742.6733,380.0161,732.6733,376.0161,736.6733" style="stroke:#000000;stroke-width:1;"/><line style="stroke:#000000;stroke-width:1;" x1="376.0161" x2="376.0161" y1="342.6323" y2="362.6323"/><polygon fill="#000000" points="372.0161,352.6323,376.0161,362.6323,380.0161,352.6323,376.0161,356.6323" style="stroke:#000000;stroke-width:1;"/><line style="stroke:#000000;stroke-width:1;" x1="376.0161" x2="376.0161" y1="277.9199" y2="310.479"/><polygon fill="#000000" points="372.0161,300.479,376.0161,310.479,380.0161,300.479,376.0161,304.479" style="stroke:#000000;stroke-width:1;"/><line style="stroke:#000000;stroke-width:1;" x1="376.0161" x2="376.0161" y1="774.8267" y2="784.8267"/><line style="stroke:#000000;stroke-width:1;" x1="376.0161" x2="533.3711" y1="784.8267" y2="784.8267"/><polygon fill="#000000" points="529.3711,527.498,533.3711,517.498,537.3711,527.498,533.3711,523.498" style="stroke:#000000;stroke-width:1;"/><line style="stroke:#000000;stroke-width:1;" x1="533.3711" x2="533.3711" y1="265.9199" y2="784.8267"/><line style="stroke:#000000;stroke-width:1;" x1="533.3711" x2="433.668" y1="265.9199" y2="265.9199"/><polygon fill="#000000" points="443.668,261.9199,433.668,265.9199,443.668,269.9199,439.668,265.9199" style="stroke:#000000;stroke-width:1;"/><line style="stroke:#000000;stroke-width:1;" x1="318.3643" x2="226.084" y1="265.9199" y2="265.9199"/><polygon fill="#000000" points="222.084,513.498,226.084,523.498,230.084,513.498,226.084,517.498" style="stroke:#000000;stroke-width:1;"/><line style="stroke:#000000;stroke-width:1;" x1="226.084" x2="226.084" y1="265.9199" y2="796.8267"/><line style="stroke:#000000;stroke-width:1;" x1="226.084" x2="376.0161" y1="796.8267" y2="796.8267"/><line style="stroke:#000000;stroke-width:1;" x1="376.0161" x2="376.0161" y1="796.8267" y2="816.8267"/><polygon fill="#000000" points="372.0161,806.8267,376.0161,816.8267,380.0161,806.8267,376.0161,810.8267" style="stroke:#000000;stroke-width:1;"/><line style="stroke:#000000;stroke-width:1;" x1="376.0161" x2="376.0161" y1="233.9199" y2="253.9199"/><polygon fill="#000000" points="372.0161,243.9199,376.0161,253.9199,380.0161,243.9199,376.0161,247.9199" style="stroke:#000000;stroke-width:1;"/><line style="stroke:#000000;stroke-width:1;" x1="376.0161" x2="376.0161" y1="848.98" y2="873.7026"/><polygon fill="#000000" points="372.0161,863.7026,376.0161,873.7026,380.0161,863.7026,376.0161,867.7026" style="stroke:#000000;stroke-width:1;"/><!--SRC=[hLDTRn9H47tVNp76bzsG9b09YU17qC2RJpwQFcnWMow5NRAxrgWnQS5Q4uYQ_W7J1nzDa9OM2on_OUu_yim5AWAF9flDt9avP-RCdNilhdbDZreDL_bMTAZybXkwJN8hiJfIyLjwRn4zSok71s7msgy-3nf1IFTBkVA3SbaYGLZrmeKtMtoOBkt2Mmxy-ALwvr4cRNrO8Qrw5HMfmDzEMYwNSgNSEcbfDrlC5ZT8hLZ53O_u6u_vaXDzp2FTvWbnmh_qAVvNt2U-XJ7LNsc7-4AtaTJdAH8_8PRD4__aWG6U03f2CX3dt8Thgaz005Rz4KuR9x6HX5Z20qbrB2kAtJ2sh3n_XtEiE_fCcj0zGlvCQE6-fMPmv4MlzWgIUB79GppJ7RxHNGHwfk59mVA3sADG7THY2Dz0zKqHb4W8fmHW23CYvlA-p8MFOPxnq0G04YRHX2CApg2ngqzfCIlGIdICMKbJV6rylqqHlZ4Z6_78ylmgIM_GekWnfI7gJKtX7cn5ZwZX-RPHw-nadZga8hBb6XnKpjUHhYX5cG9E-1Qm-Z-mDH1W6wFTeYpP8c8-TBLN-1yqzGMD-QbziYlOslY5n6pbq1DQETT519wKlofZsS64XxAEymucYyfzMAExXkdENbR5pDN-t_hvUYeb0RWNCyIT3tNRcSyrhoIy6SJodPkh79XbQUEXe8trlPRzcSAwb6aibnZxiBwHFsHGkeiSGduVkp6NrjEVnTuwNfu8ScOgNPdmjM2GZpKRWQuZNSq0E4QJNPdAohv5ST2o_W00]--></g></svg>